<svg xmlns="http://www.w3.org/2000/svg" style="display: none;"><symbol id="facebook-logo-in-circular-button-outlined-social-symbol" viewBox="0 0 612 612"><title>facebook-logo-in-circular-button-outlined-social-symbol</title><path d="M612,306C612,137.004,474.995,0,306,0C137.004,0,0,137.004,0,306c0,168.995,137.004,306,306,306 C474.995,612,612,474.995,612,306z M27.818,306C27.818,152.36,152.36,27.818,306,27.818S584.182,152.36,584.182,306 S459.64,584.182,306,584.182S27.818,459.64,27.818,306z"/><path d="M317.739,482.617V306h58.279l9.208-58.529h-67.487v-29.348c0-15.272,5.007-29.849,26.928-29.849h43.813v-58.418h-62.201 c-52.298,0-66.569,34.438-66.569,82.175v35.413h-35.885V306h35.885v176.617H317.739L317.739,482.617z"/></symbol><symbol id="instagram" viewBox="0 0 512 512"><title>instagram</title><g> <g> <path d="M373.659,0H138.341C62.06,0,0,62.06,0,138.341v235.318C0,449.94,62.06,512,138.341,512h235.318 C449.94,512,512,449.94,512,373.659V138.341C512,62.06,449.94,0,373.659,0z M470.636,373.659 c0,53.473-43.503,96.977-96.977,96.977H138.341c-53.473,0-96.977-43.503-96.977-96.977V138.341 c0-53.473,43.503-96.977,96.977-96.977h235.318c53.473,0,96.977,43.503,96.977,96.977V373.659z"/> </g> </g><g> <g> <path d="M370.586,238.141c-3.64-24.547-14.839-46.795-32.386-64.342c-17.547-17.546-39.795-28.746-64.341-32.385 c-11.176-1.657-22.507-1.657-33.682,0c-30.336,4.499-57.103,20.541-75.372,45.172c-18.269,24.631-25.854,54.903-21.355,85.237 c4.499,30.335,20.541,57.102,45.172,75.372c19.996,14.831,43.706,22.619,68.153,22.619c5.667,0,11.375-0.418,17.083-1.265 c30.336-4.499,57.103-20.541,75.372-45.172C367.5,298.747,375.085,268.476,370.586,238.141z M267.791,327.632 c-19.405,2.882-38.77-1.973-54.527-13.66c-15.757-11.687-26.019-28.811-28.896-48.216c-2.878-19.405,1.973-38.77,13.66-54.527 c11.688-15.757,28.811-26.019,48.217-28.897c3.574-0.53,7.173-0.795,10.772-0.795s7.199,0.265,10.773,0.796 c32.231,4.779,57.098,29.645,61.878,61.877C335.608,284.268,307.851,321.692,267.791,327.632z"/> </g> </g><g> <g> <path d="M400.049,111.951c-3.852-3.851-9.183-6.058-14.625-6.058c-5.442,0-10.773,2.206-14.625,6.058 c-3.851,3.852-6.058,9.174-6.058,14.625c0,5.451,2.207,10.773,6.058,14.625c3.852,3.851,9.183,6.058,14.625,6.058 c5.442,0,10.773-2.206,14.625-6.058c3.851-3.852,6.058-9.183,6.058-14.625C406.107,121.133,403.9,115.802,400.049,111.951z"/> </g> </g></symbol><symbol id="youtube" viewBox="0 0 334.623 334.623"><title>youtube</title><path d="M175.329,287.017C175.322,287.017,175.329,287.017,175.329,287.017c-38.053,0-79.481-1.202-123.125-3.554 c-25.784-1.414-45.785-21.292-48.632-48.349c-4.762-45.2-4.762-90.83,0-135.625c2.841-26.832,22.815-46.71,48.574-48.33 c75.271-4.737,152.721-4.737,230.312,0c26.061,1.581,45.586,20.99,48.6,48.304c4.749,43.246,4.756,88.87,0.006,135.632 c-2.744,27.038-22.25,46.472-48.535,48.356C249.45,285.815,213.382,287.017,175.329,287.017z M166.428,60.452 c-37.931,0-76.113,1.195-113.485,3.541c-19.685,1.234-34.39,16.048-36.594,36.851c-4.666,43.895-4.666,88.613,0,132.926 c2.204,20.971,16.89,35.778,36.543,36.858c43.413,2.339,84.609,3.535,122.425,3.535c37.751,0,73.51-1.189,106.287-3.528 c19.833-1.427,34.57-16.228,36.659-36.839c4.666-45.862,4.666-90.58,0.006-132.926c-2.294-20.868-17.005-35.688-36.594-36.877 C243.145,61.641,204.365,60.452,166.428,60.452z M134.576,121.783v88.208l84.706-43.805L134.576,121.783z"/></symbol></svg>